<svg width="129" height="50" viewBox="0 0 129 50" fill="none" xmlns="http://www.w3.org/2000/svg">
<g clip-path="url(#clip0_20_62)">
<rect width="129" height="50" rx="10" fill="white" fill-opacity="0.5"/>
<path d="M30.0794 50C28.5099 50 26.9643 49.4811 25.6915 48.4817L25.5049 48.3376C23.0837 46.4398 22.141 43.2111 23.165 40.3043L26.2513 31.5359C27.1318 29.0375 25.9882 27.0004 24.6244 25.9338C23.2607 24.8623 21.0213 24.2378 18.8154 25.6984L11.0541 30.8393C8.49893 32.5305 5.15898 32.396 2.74255 30.5077C0.881179 29.052 -0.138028 26.7698 0.0150929 24.4059C0.163428 22.0469 1.46496 19.9136 3.48902 18.7077L32.5963 1.35345C35.9936 -0.674095 40.2044 -0.405038 43.3195 2.0357C46.4345 4.47643 47.7217 8.5123 46.5877 12.3127L45.535 15.8489C45.3627 16.4207 44.7646 16.7426 44.1951 16.5744C43.6257 16.4014 43.3004 15.8009 43.4726 15.2291L44.5253 11.6929C45.401 8.75253 44.4057 5.62954 41.994 3.73653C39.5824 1.84832 36.3238 1.63692 33.692 3.20802L4.58 20.5622C3.1445 21.4175 2.25927 22.8636 2.154 24.5356C2.04873 26.2124 2.74255 27.7643 4.05843 28.7925C5.74276 30.1138 8.07785 30.2051 9.86266 29.0279L17.624 23.887C20.227 22.167 23.4904 22.2967 25.9451 24.2233C28.3998 26.15 29.3137 29.3018 28.2754 32.2518L25.1891 41.0202C24.4761 43.0526 25.1316 45.3059 26.8208 46.6272L27.0074 46.7713C28.328 47.8043 29.998 48.1022 31.5866 47.5929C33.1753 47.0836 34.3619 45.868 34.8404 44.2633L35.9554 40.5109C36.1228 39.9392 36.7257 39.6125 37.2952 39.7854C37.8646 39.9584 38.19 40.559 38.0177 41.1307L36.9028 44.8831C36.2281 47.1509 34.4864 48.9334 32.2422 49.6541C31.5388 49.8895 30.8067 50 30.0794 50Z" fill="url(#paint0_linear_20_62)"/>
<path d="M48.9333 31.6709V31.7333C48.9333 35.1206 46.5551 37.1433 42.5692 37.1433C40.7365 37.1433 38.8799 36.6677 37.21 35.7692C36.7123 35.5001 36.3487 35.0341 36.2099 34.4912C36.0711 33.9483 36.162 33.3957 36.4635 32.9297C37.0138 32.0745 38.1287 31.7718 38.9996 32.2426C40.2915 32.9393 41.5691 33.3093 42.6936 33.3093C43.8611 33.3093 44.5071 32.9201 44.5071 32.2186V32.1561C44.5071 31.3682 43.3348 31.0174 41.8514 30.5802C41.6457 30.5178 41.4399 30.4553 41.2246 30.3929C36.8559 29.1052 36.2673 27.1209 36.2673 25.3528V25.2904C36.2673 22.1097 38.7125 19.9717 42.3539 19.9717C43.7846 19.9717 45.2919 20.2936 46.713 20.9086C47.2202 21.1248 47.6126 21.5572 47.7944 22.0809C47.9763 22.6094 47.9236 23.1956 47.6557 23.6856C47.1532 24.6033 46.067 24.9685 45.1244 24.5505C44.0286 24.0652 43.0381 23.8058 42.263 23.8058C41.2964 23.8058 40.6935 24.1853 40.6935 24.8051V24.8676C40.6935 25.5979 41.9519 26.0255 43.4066 26.5204L43.9138 26.6933C46.3446 27.5053 48.9333 28.6248 48.9333 31.6709Z" fill="#010101"/>
<path d="M66.1925 23.5558L60.9624 37.5468C59.6944 40.9292 58.3355 42.2024 55.5219 42.2024C54.7228 42.2024 54.0146 42.1064 53.3686 41.9286C52.2394 41.6211 51.6747 40.3383 52.1676 39.2717C52.5456 38.4549 53.4404 38.008 54.3113 38.2098C54.5266 38.2579 54.7371 38.2867 54.9285 38.2867H54.9525C55.9334 38.2819 56.6033 37.297 56.2492 36.3793L51.2728 23.5798C50.6986 22.1 51.7848 20.5049 53.3638 20.5049H53.4308C54.3974 20.5049 55.2539 21.1247 55.5602 22.0472L57.4311 27.6637C57.8713 28.985 59.7327 28.9706 60.1586 27.6445L61.9386 22.0712C62.2352 21.1391 63.1013 20.5049 64.0775 20.5049C65.6565 20.5049 66.7427 22.0808 66.1925 23.5558Z" fill="#010101"/>
<path d="M84.6292 26.3712V34.784C84.6292 36.0861 83.5765 37.1431 82.2798 37.1431C80.9831 37.1431 79.9304 36.0861 79.9304 34.784V27.8606C79.9304 25.6265 78.8776 24.4782 77.0881 24.4782C75.2985 24.4782 74.1501 25.6265 74.1501 27.8606V34.784C74.1501 36.0861 73.0974 37.1431 71.8006 37.1431C70.5039 37.1431 69.4512 36.0861 69.4512 34.784V22.8686C69.4512 21.5666 70.5039 20.5096 71.8006 20.5096C72.5806 20.5096 73.2696 20.8891 73.6955 21.4753C74.0639 21.9798 74.8056 21.9942 75.2793 21.5858C76.0832 20.8987 77.3177 20.1973 79.0021 20.1973C82.5621 20.1973 84.634 22.5515 84.6292 26.3712Z" fill="#010101"/>
<path d="M103.047 23.6086L98.4291 35.4711C97.9554 36.6915 96.783 37.4939 95.4815 37.4939C94.1752 37.4939 93.0076 36.6915 92.5339 35.4711L87.9164 23.6086C87.3326 22.1143 88.4332 20.5 90.0314 20.5H90.1175C91.0936 20.5 91.9597 21.1294 92.2708 22.0567L93.9407 27.1015C94.6298 29.1723 96.4146 29.1723 97.1084 27.1015L98.7879 22.0519C99.099 21.1246 99.9651 20.5 100.936 20.5C102.53 20.5048 103.626 22.1192 103.047 23.6086Z" fill="#010101"/>
<path d="M111.004 23.368V34.779C111.004 36.081 109.951 37.138 108.654 37.138C107.357 37.138 106.305 36.081 106.305 34.779V23.368C106.305 22.066 107.357 21.009 108.654 21.009C109.951 21.009 111.004 22.066 111.004 23.368ZM106.314 16.7713C106.314 15.4741 107.362 14.4219 108.654 14.4219C109.946 14.4219 110.994 15.4741 110.994 16.7713C110.994 18.0686 109.946 19.1208 108.654 19.1208C107.362 19.1208 106.314 18.0686 106.314 16.7713Z" fill="#010101"/>
<path d="M113.76 32.055V31.9925C113.76 28.3602 116.511 26.6882 120.435 26.6882C121.248 26.6882 121.957 26.7603 122.602 26.8708C123.847 27.0774 124.636 25.982 123.847 25.1123C123.239 24.4397 122.296 24.0457 120.933 24.0457C119.856 24.0457 118.971 24.1706 118.109 24.3868C117.109 24.6415 116.08 24.0986 115.76 23.1136C115.42 22.071 116.004 20.9612 117.047 20.6393C118.325 20.2453 119.746 20.0146 121.612 20.0146C124.177 20.0146 126.033 20.6969 127.206 21.8788C128.44 23.1184 129 24.949 129 27.1831V34.7215C129 35.8842 128.057 36.8307 126.899 36.8307H126.249C125.459 36.8307 125.014 36.4079 124.765 35.9755C124.536 35.5767 124.004 35.5143 123.641 35.7978C122.588 36.629 121.234 37.1382 119.449 37.1382C116.325 37.143 113.76 35.3413 113.76 32.055ZM121.708 29.5085C119.794 29.5085 118.617 30.234 118.617 31.6946C118.617 33.1552 119.626 33.8375 121.057 33.6741C122.866 33.4723 123.89 32.4057 124.115 31.1613C124.325 30.0274 123.119 29.5085 121.708 29.5085Z" fill="#010101"/>
<path d="M73.049 43.2734H71.4936C71.4652 43.0722 71.4072 42.8935 71.3196 42.7372C71.232 42.5786 71.1196 42.4437 70.9822 42.3324C70.8449 42.2211 70.6863 42.1359 70.5064 42.0767C70.3288 42.0175 70.1359 41.9879 69.9276 41.9879C69.5511 41.9879 69.2232 42.0814 68.9439 42.2685C68.6645 42.4531 68.4479 42.723 68.294 43.0781C68.1402 43.4309 68.0632 43.8594 68.0632 44.3636C68.0632 44.8821 68.1402 45.3177 68.294 45.6705C68.4503 46.0232 68.6681 46.2895 68.9474 46.4695C69.2268 46.6494 69.55 46.7393 69.9169 46.7393C70.1229 46.7393 70.3134 46.7121 70.4886 46.6577C70.6662 46.6032 70.8236 46.5239 70.9609 46.4197C71.0982 46.3132 71.2119 46.1842 71.3018 46.0327C71.3942 45.8812 71.4581 45.7083 71.4936 45.5142L73.049 45.5213C73.0088 45.8551 72.9081 46.1771 72.7472 46.4872C72.5885 46.795 72.3743 47.0708 72.1044 47.3146C71.8369 47.5561 71.5173 47.7479 71.1456 47.8899C70.7763 48.0296 70.3584 48.0994 69.892 48.0994C69.2434 48.0994 68.6634 47.9527 68.152 47.6591C67.643 47.3655 67.2405 46.9406 66.9446 46.3842C66.651 45.8279 66.5043 45.1544 66.5043 44.3636C66.5043 43.5705 66.6534 42.8958 66.9517 42.3395C67.25 41.7831 67.6548 41.3594 68.1662 41.0682C68.6776 40.7746 69.2528 40.6278 69.892 40.6278C70.3134 40.6278 70.7041 40.687 71.0639 40.8054C71.4261 40.9238 71.7469 41.0966 72.0263 41.3239C72.3056 41.5488 72.5329 41.8246 72.7081 42.1513C72.8857 42.478 72.9993 42.852 73.049 43.2734ZM76.5877 48.1065C76.0361 48.1065 75.5591 47.9893 75.1566 47.755C74.7565 47.5182 74.4476 47.1892 74.2298 46.7678C74.012 46.344 73.9031 45.8527 73.9031 45.294C73.9031 44.7306 74.012 44.2382 74.2298 43.8168C74.4476 43.393 74.7565 43.0639 75.1566 42.8295C75.5591 42.5928 76.0361 42.4744 76.5877 42.4744C77.1393 42.4744 77.6152 42.5928 78.0153 42.8295C78.4177 43.0639 78.7279 43.393 78.9457 43.8168C79.1635 44.2382 79.2724 44.7306 79.2724 45.294C79.2724 45.8527 79.1635 46.344 78.9457 46.7678C78.7279 47.1892 78.4177 47.5182 78.0153 47.755C77.6152 47.9893 77.1393 48.1065 76.5877 48.1065ZM76.5948 46.9347C76.8458 46.9347 77.0553 46.8636 77.2234 46.7216C77.3915 46.5772 77.5181 46.3807 77.6033 46.1321C77.6909 45.8835 77.7347 45.6006 77.7347 45.2834C77.7347 44.9661 77.6909 44.6832 77.6033 44.4347C77.5181 44.1861 77.3915 43.9896 77.2234 43.8452C77.0553 43.7008 76.8458 43.6286 76.5948 43.6286C76.3415 43.6286 76.1284 43.7008 75.9556 43.8452C75.7852 43.9896 75.6561 44.1861 75.5685 44.4347C75.4833 44.6832 75.4407 44.9661 75.4407 45.2834C75.4407 45.6006 75.4833 45.8835 75.5685 46.1321C75.6561 46.3807 75.7852 46.5772 75.9556 46.7216C76.1284 46.8636 76.3415 46.9347 76.5948 46.9347ZM84.7944 44.1009L83.4094 44.1861C83.3858 44.0677 83.3349 43.9612 83.2567 43.8665C83.1786 43.7694 83.0756 43.6925 82.9478 43.6357C82.8223 43.5765 82.672 43.5469 82.4968 43.5469C82.2624 43.5469 82.0647 43.5966 81.9038 43.696C81.7428 43.7931 81.6623 43.9233 81.6623 44.0866C81.6623 44.2169 81.7144 44.3269 81.8185 44.4169C81.9227 44.5069 82.1014 44.5791 82.3548 44.6335L83.342 44.8324C83.8723 44.9413 84.2676 45.1165 84.5281 45.358C84.7885 45.5994 84.9187 45.9167 84.9187 46.3097C84.9187 46.6671 84.8133 46.9808 84.6026 47.2507C84.3943 47.5206 84.1078 47.7313 83.7433 47.8828C83.381 48.032 82.9632 48.1065 82.4897 48.1065C81.7676 48.1065 81.1924 47.9562 80.7638 47.6555C80.3377 47.3525 80.0879 46.9406 80.0146 46.4197L81.5025 46.3416C81.5475 46.5618 81.6564 46.7299 81.8292 46.8459C82.002 46.9595 82.2234 47.0163 82.4933 47.0163C82.7584 47.0163 82.9715 46.9654 83.1325 46.8636C83.2958 46.7595 83.3787 46.6257 83.381 46.4624C83.3787 46.325 83.3207 46.2126 83.207 46.125C83.0934 46.035 82.9182 45.9664 82.6815 45.919L81.7369 45.7308C81.2042 45.6243 80.8076 45.4396 80.5472 45.1768C80.2892 44.9141 80.1602 44.5791 80.1602 44.1719C80.1602 43.8215 80.2549 43.5196 80.4442 43.2663C80.636 43.013 80.9047 42.8177 81.2504 42.6804C81.5984 42.5431 82.0056 42.4744 82.4719 42.4744C83.1609 42.4744 83.703 42.62 84.0984 42.9112C84.4961 43.2024 84.7281 43.599 84.7944 44.1009ZM85.8713 48V42.5455H87.313V43.5078H87.377C87.4906 43.1882 87.68 42.9361 87.9451 42.7514C88.2103 42.5668 88.5275 42.4744 88.8968 42.4744C89.2709 42.4744 89.5893 42.5679 89.8521 42.755C90.1149 42.9396 90.2901 43.1906 90.3777 43.5078H90.4345C90.5458 43.1953 90.747 42.9455 91.0382 42.7585C91.3317 42.5691 91.6786 42.4744 92.0787 42.4744C92.5877 42.4744 93.0008 42.6366 93.318 42.9609C93.6376 43.2829 93.7974 43.7398 93.7974 44.3317V48H92.2882V44.63C92.2882 44.3269 92.2077 44.0997 92.0467 43.9482C91.8857 43.7966 91.6845 43.7209 91.443 43.7209C91.1684 43.7209 90.9541 43.8085 90.8002 43.9837C90.6464 44.1565 90.5694 44.3849 90.5694 44.669V48H89.1028V44.598C89.1028 44.3305 89.0259 44.1174 88.872 43.9588C88.7205 43.8002 88.5204 43.7209 88.2718 43.7209C88.1038 43.7209 87.9522 43.7635 87.8173 43.8487C87.6847 43.9316 87.5794 44.0488 87.5012 44.2003C87.4231 44.3494 87.3841 44.5246 87.3841 44.7259V48H85.8713ZM97.4782 48.1065C96.9171 48.1065 96.4341 47.9929 96.0293 47.7656C95.6268 47.536 95.3167 47.2116 95.0989 46.7926C94.8811 46.3712 94.7722 45.8729 94.7722 45.2976C94.7722 44.7365 94.8811 44.2441 95.0989 43.8203C95.3167 43.3965 95.6233 43.0663 96.0186 42.8295C96.4164 42.5928 96.8828 42.4744 97.4178 42.4744C97.7776 42.4744 98.1126 42.5324 98.4228 42.6484C98.7353 42.7621 99.0075 42.9337 99.2395 43.1634C99.4739 43.393 99.6562 43.6818 99.7864 44.0298C99.9166 44.3755 99.9817 44.7803 99.9817 45.2443V45.6598H95.3759V44.7223H98.5577C98.5577 44.5045 98.5104 44.3116 98.4157 44.1435C98.321 43.9754 98.1896 43.844 98.0215 43.7493C97.8558 43.6522 97.6628 43.6037 97.4426 43.6037C97.213 43.6037 97.0094 43.657 96.8319 43.7635C96.6567 43.8677 96.5194 44.0085 96.4199 44.1861C96.3205 44.3613 96.2696 44.5566 96.2672 44.772V45.6634C96.2672 45.9332 96.3169 46.1664 96.4164 46.3629C96.5182 46.5594 96.6614 46.7109 96.8461 46.8175C97.0307 46.924 97.2497 46.9773 97.503 46.9773C97.6711 46.9773 97.825 46.9536 97.9647 46.9062C98.1043 46.8589 98.2239 46.7879 98.3233 46.6932C98.4228 46.5985 98.4985 46.4825 98.5506 46.3452L99.9498 46.4375C99.8787 46.7737 99.7331 47.0672 99.513 47.3182C99.2952 47.5668 99.0134 47.7609 98.6678 47.9006C98.3245 48.0379 97.928 48.1065 97.4782 48.1065ZM103.87 42.5455V43.6818H100.585V42.5455H103.87ZM101.331 41.2386H102.844V46.3239C102.844 46.4635 102.865 46.5724 102.908 46.6506C102.95 46.7263 103.01 46.7796 103.085 46.8104C103.164 46.8411 103.253 46.8565 103.355 46.8565C103.426 46.8565 103.497 46.8506 103.568 46.8388C103.639 46.8246 103.694 46.8139 103.732 46.8068L103.97 47.9325C103.894 47.9562 103.787 47.9834 103.65 48.0142C103.513 48.0473 103.346 48.0675 103.149 48.0746C102.785 48.0888 102.465 48.0402 102.191 47.929C101.918 47.8177 101.706 47.6449 101.555 47.4105C101.403 47.1761 101.329 46.8802 101.331 46.5227V41.2386ZM104.856 48V42.5455H106.368V48H104.856ZM105.616 41.8423C105.391 41.8423 105.198 41.7678 105.037 41.6186C104.878 41.4671 104.799 41.286 104.799 41.0753C104.799 40.867 104.878 40.6882 105.037 40.5391C105.198 40.3875 105.391 40.3118 105.616 40.3118C105.84 40.3118 106.032 40.3875 106.191 40.5391C106.352 40.6882 106.432 40.867 106.432 41.0753C106.432 41.286 106.352 41.4671 106.191 41.6186C106.032 41.7678 105.84 41.8423 105.616 41.8423ZM110.045 48.1065C109.486 48.1065 109.005 47.9882 108.603 47.7514C108.203 47.5123 107.895 47.1809 107.68 46.7571C107.467 46.3333 107.36 45.8456 107.36 45.294C107.36 44.7353 107.468 44.2453 107.683 43.8239C107.901 43.4001 108.21 43.0698 108.61 42.8331C109.01 42.594 109.486 42.4744 110.038 42.4744C110.513 42.4744 110.93 42.5608 111.288 42.7337C111.645 42.9065 111.928 43.1491 112.136 43.4616C112.345 43.7741 112.46 44.1411 112.481 44.5625H111.053C111.013 44.2902 110.906 44.0713 110.734 43.9055C110.563 43.7375 110.339 43.6534 110.062 43.6534C109.828 43.6534 109.623 43.7173 109.448 43.8452C109.275 43.9706 109.14 44.1541 109.043 44.3956C108.946 44.6371 108.898 44.9295 108.898 45.2727C108.898 45.6207 108.945 45.9167 109.04 46.1605C109.137 46.4044 109.273 46.5902 109.448 46.718C109.623 46.8459 109.828 46.9098 110.062 46.9098C110.235 46.9098 110.39 46.8743 110.528 46.8033C110.667 46.7322 110.782 46.6293 110.872 46.4943C110.964 46.357 111.025 46.1925 111.053 46.0007H112.481C112.457 46.4174 112.344 46.7843 112.14 47.1016C111.939 47.4164 111.661 47.6626 111.305 47.8402C110.95 48.0178 110.53 48.1065 110.045 48.1065ZM115.914 48.1065C115.362 48.1065 114.885 47.9893 114.483 47.755C114.083 47.5182 113.774 47.1892 113.556 46.7678C113.338 46.344 113.229 45.8527 113.229 45.294C113.229 44.7306 113.338 44.2382 113.556 43.8168C113.774 43.393 114.083 43.0639 114.483 42.8295C114.885 42.5928 115.362 42.4744 115.914 42.4744C116.465 42.4744 116.941 42.5928 117.341 42.8295C117.744 43.0639 118.054 43.393 118.272 43.8168C118.49 44.2382 118.599 44.7306 118.599 45.294C118.599 45.8527 118.49 46.344 118.272 46.7678C118.054 47.1892 117.744 47.5182 117.341 47.755C116.941 47.9893 116.465 48.1065 115.914 48.1065ZM115.921 46.9347C116.172 46.9347 116.381 46.8636 116.55 46.7216C116.718 46.5772 116.844 46.3807 116.93 46.1321C117.017 45.8835 117.061 45.6006 117.061 45.2834C117.061 44.9661 117.017 44.6832 116.93 44.4347C116.844 44.1861 116.718 43.9896 116.55 43.8452C116.381 43.7008 116.172 43.6286 115.921 43.6286C115.668 43.6286 115.455 43.7008 115.282 43.8452C115.111 43.9896 114.982 44.1861 114.895 44.4347C114.809 44.6832 114.767 44.9661 114.767 45.2834C114.767 45.6006 114.809 45.8835 114.895 46.1321C114.982 46.3807 115.111 46.5772 115.282 46.7216C115.455 46.8636 115.668 46.9347 115.921 46.9347ZM124.121 44.1009L122.736 44.1861C122.712 44.0677 122.661 43.9612 122.583 43.8665C122.505 43.7694 122.402 43.6925 122.274 43.6357C122.148 43.5765 121.998 43.5469 121.823 43.5469C121.589 43.5469 121.391 43.5966 121.23 43.696C121.069 43.7931 120.988 43.9233 120.988 44.0866C120.988 44.2169 121.041 44.3269 121.145 44.4169C121.249 44.5069 121.428 44.5791 121.681 44.6335L122.668 44.8324C123.198 44.9413 123.594 45.1165 123.854 45.358C124.115 45.5994 124.245 45.9167 124.245 46.3097C124.245 46.6671 124.14 46.9808 123.929 47.2507C123.72 47.5206 123.434 47.7313 123.069 47.8828C122.707 48.032 122.289 48.1065 121.816 48.1065C121.094 48.1065 120.519 47.9562 120.09 47.6555C119.664 47.3525 119.414 46.9406 119.341 46.4197L120.829 46.3416C120.874 46.5618 120.983 46.7299 121.155 46.8459C121.328 46.9595 121.55 47.0163 121.819 47.0163C122.085 47.0163 122.298 46.9654 122.459 46.8636C122.622 46.7595 122.705 46.6257 122.707 46.4624C122.705 46.325 122.647 46.2126 122.533 46.125C122.42 46.035 122.244 45.9664 122.008 45.919L121.063 45.7308C120.53 45.6243 120.134 45.4396 119.873 45.1768C119.615 44.9141 119.486 44.5791 119.486 44.1719C119.486 43.8215 119.581 43.5196 119.77 43.2663C119.962 43.013 120.231 42.8177 120.577 42.6804C120.925 42.5431 121.332 42.4744 121.798 42.4744C122.487 42.4744 123.029 42.62 123.425 42.9112C123.822 43.2024 124.054 43.599 124.121 44.1009Z" fill="black"/>
</g>
<defs>
<linearGradient id="paint0_linear_20_62" x1="23.5004" y1="-0.000922708" x2="23.5004" y2="49.9991" gradientUnits="userSpaceOnUse">
<stop stop-color="#7FC344"/>
<stop offset="1" stop-color="#00AE4D"/>
</linearGradient>
<clipPath id="clip0_20_62">
<rect width="129" height="50" rx="10" fill="white"/>
</clipPath>
</defs>
</svg>
