<svg width="10" height="10" viewBox="0 0 10 10" fill="none" xmlns="http://www.w3.org/2000/svg">
<path d="M5.00016 0C5.17448 0 5.33364 0.101562 5.40944 0.263672L6.70925 3.02344L9.61205 3.46484C9.78258 3.49023 9.92469 3.61328 9.97775 3.7832C10.0308 3.95312 9.98722 4.13672 9.86595 4.26172L7.76086 6.41406L8.25729 9.45312C8.28571 9.62891 8.2156 9.80664 8.07539 9.91211C7.93517 10.0176 7.74759 10.0293 7.59601 9.94531L5.00016 8.51562L2.40621 9.94336C2.25274 10.0273 2.06705 10.0156 1.92683 9.91016C1.78662 9.80469 1.71462 9.62695 1.74304 9.45117L2.23947 6.41211L0.134375 4.26172C0.011214 4.13672 -0.0304711 3.95117 0.0225827 3.7832C0.0756364 3.61523 0.217745 3.49219 0.388275 3.46484L3.29107 3.02344L4.59089 0.263672C4.66858 0.101562 4.82584 0 5.00016 0ZM5.00016 1.54297L4.00541 3.65625C3.93909 3.79492 3.81214 3.89258 3.66245 3.91602L1.42093 4.25586L3.04854 5.91797C3.15276 6.02539 3.20202 6.17773 3.17739 6.32812L2.79275 8.66602L4.78605 7.56836C4.92058 7.49414 5.08164 7.49414 5.21427 7.56836L7.20758 8.66602L6.82483 6.33008C6.8002 6.17969 6.84757 6.02734 6.95368 5.91992L8.58129 4.25781L6.33977 3.91602C6.19198 3.89258 6.06313 3.79688 5.99682 3.65625L5.00016 1.54297Z" fill="#86BD2C"/>
</svg>
